# xmcd CD database file
#
# Track frame offsets:
#	150
#	4170
#	18787
#	39575
#	51325
#	63600
#	86987
#	102195
#	118842
#	131237
#	151207
#	170425
#	183225
#	200032
#	217675
#	227045
#
# Disc length: 3153 seconds
#
# Revision: 0
# Processed by: cddbd v1.5.1PL0 Copyright (c) Steve Scherf et al.
# Submitted via: CDex 1.51
#
DISCID=db0c4f10
DTITLE=Semper House Band Dresden - Classic Dixie Live
DYEAR=1989
DGENRE=Jazz
TTITLE0=Prelude
TTITLE1=Alexanders Ragtime Band
TTITLE2=Summertime
TTITLE3=Alice in Dixieland
TTITLE4=Macky Messer
TTITLE5=Georgia on my mind
TTITLE6=St. Louis Blues
TTITLE7=Oboen Dixie
TTITLE8=Muskrat Ramble
TTITLE9=Wolgalied
TTITLE10=Nobody knows the truble i've seen
TTITLE11=At the Jazzbandball
TTITLE12=Der Rheinweinzecher
TTITLE13=When the saints go marching in
TTITLE14=Bugle Call Rag
TTITLE15=Bye Bye Blues
EXTD=YEAR: 1989
EXTT0=
EXTT1=
EXTT2=
EXTT3=
EXTT4=
EXTT5=
EXTT6=
EXTT7=
EXTT8=
EXTT9=
EXTT10=
EXTT11=
EXTT12=
EXTT13=
EXTT14=
EXTT15=
PLAYORDER=
